<?xml version="1.0" encoding="UTF-8"?>
<svg version="1.1" xmlns="http://www.w3.org/2000/svg" width="128" height="128">
<path d="M0 0 C1.4540625 0.0309375 1.4540625 0.0309375 2.9375 0.0625 C8.35382763 10.7270071 13.50239227 21.48025098 18.4375 32.375 C19.12404661 33.88482177 19.81090284 35.39450277 20.49804688 36.90405273 C21.92428714 40.03774548 23.34920873 43.17203324 24.7734375 46.30664062 C27.2757204 51.81019374 29.79348454 57.30661816 32.31251526 62.80252075 C34.99507643 68.65589745 37.66827147 74.51349764 40.33738708 80.37301636 C42.12591349 84.29579361 43.93266381 88.20945364 45.75390625 92.1171875 C46.50284642 93.74468021 47.25157178 95.3722718 48 97 C48.32871094 97.69101807 48.65742187 98.38203613 48.99609375 99.09399414 C50.58581655 102.58655315 51.08353953 104.41851783 49.9375 108.0625 C46.02139516 108.23676756 42.10628503 108.34334155 38.1875 108.4375 C37.07632813 108.48777344 35.96515625 108.53804688 34.8203125 108.58984375 C31.75369633 108.64526452 28.95429667 108.62105996 25.9375 108.0625 C23.3125 105.34375 23.3125 105.34375 21.9375 102.0625 C21.51984375 101.21945313 21.1021875 100.37640625 20.671875 99.5078125 C20.18460938 98.35925781 20.18460938 98.35925781 19.6875 97.1875 C19.35234375 96.40632813 19.0171875 95.62515625 18.671875 94.8203125 C18.42953125 94.24023438 18.1871875 93.66015625 17.9375 93.0625 C17.21046875 93.495625 16.4834375 93.92875 15.734375 94.375 C7.11234094 99.1502804 -0.43741589 100.80928108 -10.0625 98.0625 C-9.45504603 93.20286821 -7.33491033 89.3219482 -5.0625 85.0625 C-2.7525 85.0625 -0.4425 85.0625 1.9375 85.0625 C1.256875 84.505625 0.57625 83.94875 -0.125 83.375 C-1.0840625 82.2303125 -1.0840625 82.2303125 -2.0625 81.0625 C-1.69885796 77.15500094 -0.21154412 74.1463905 1.5625 70.6875 C3.74185303 65.9949624 4.53672133 63.16001798 2.9375 58.0625 C1.98355164 56.04012948 0.99214649 54.0342304 -0.0625 52.0625 C-0.0625 51.4025 -0.0625 50.7425 -0.0625 50.0625 C-4.56547608 52.73073302 -9.06781916 55.4000298 -13.56958008 58.0703125 C-15.10098211 58.97848272 -16.63255642 59.88636248 -18.16430664 60.79394531 C-20.36650268 62.09884462 -22.56807616 63.40478865 -24.76953125 64.7109375 C-25.79624687 65.31885635 -25.79624687 65.31885635 -26.84370422 65.9390564 C-29.62724542 67.59171217 -32.36829251 69.26636168 -35.0625 71.0625 C-34.42498923 66.8930441 -33.02566369 63.53227829 -31.2109375 59.734375 C-30.77421722 58.81281364 -30.77421722 58.81281364 -30.32867432 57.87263489 C-29.69859801 56.54403852 -29.06610673 55.21658529 -28.43145752 53.89016724 C-26.72922019 50.33198425 -25.04452716 46.7655174 -23.359375 43.19921875 C-23.00900177 42.45860703 -22.65862854 41.7179953 -22.29763794 40.9549408 C-17.65291569 31.11259721 -13.19068313 21.18682641 -8.72412109 11.26269531 C-8.41794861 10.58462326 -8.11177612 9.90655121 -7.79632568 9.20793152 C-6.96736149 7.37195218 -6.14105962 5.53477144 -5.31494141 3.69750977 C-3.59233138 0.07331289 -3.59233138 0.07331289 0 0 Z M3.9375 41.0625 C1.91609909 43.95021558 0.9375 45.56042704 0.9375 49.0625 C5.8875 50.0525 5.8875 50.0525 10.9375 51.0625 C11.94234204 49.10664675 12.94123805 47.14773763 13.9375 45.1875 C14.494375 44.09695312 15.05125 43.00640625 15.625 41.8828125 C17.07814094 39.27874918 17.07814094 39.27874918 16.9375 37.0625 C12.42470819 37.0625 7.92568268 39.08049406 3.9375 41.0625 Z M7.9375 65.0625 C8.9375 67.0625 8.9375 67.0625 8.9375 67.0625 Z M8.9375 67.0625 C9.5975 69.3725 10.2575 71.6825 10.9375 74.0625 C12.27054698 71.17063214 12.27054698 71.17063214 11 68.875 C10.649375 68.276875 10.29875 67.67875 9.9375 67.0625 C9.6075 67.0625 9.2775 67.0625 8.9375 67.0625 Z " fill="#FBC00B" transform="translate(67.0625,5.9375)"/>
<path d="M0 0 C0.99 0 1.98 0 3 0 C3 16.17 3 32.34 3 49 C5.31 49 7.62 49 10 49 C12.60727906 49.93902004 14.72662797 51.42612705 17 53 C18.299375 53.86625 18.299375 53.86625 19.625 54.75 C24.93610257 59.78157086 28.10038841 65.72192088 28.375 73.0625 C28.35834811 79.30696045 26.19415325 83.74105484 23 89 C22.01 89 21.02 89 20 89 C17.34075046 83.66120131 14.93075576 78.69069728 14.0625 72.75 C13.31127643 68.20688603 11.69095789 66.04951547 8.53125 62.796875 C5.66354327 59.43170894 3 54.50130219 3 50 C-1.50297608 52.66823302 -6.00531916 55.3375298 -10.50708008 58.0078125 C-12.03848211 58.91598272 -13.57005642 59.82386248 -15.10180664 60.73144531 C-17.30400268 62.03634462 -19.50557616 63.34228865 -21.70703125 64.6484375 C-22.73374687 65.25635635 -22.73374687 65.25635635 -23.78120422 65.8765564 C-26.56474542 67.52921217 -29.30579251 69.20386168 -32 71 C-31.36248923 66.8305441 -29.96316369 63.46977829 -28.1484375 59.671875 C-27.71171722 58.75031364 -27.71171722 58.75031364 -27.26617432 57.81013489 C-26.63609801 56.48153852 -26.00360673 55.15408529 -25.36895752 53.82766724 C-23.66672019 50.26948425 -21.98202716 46.7030174 -20.296875 43.13671875 C-19.94650177 42.39610703 -19.59612854 41.6554953 -19.23513794 40.8924408 C-14.59041569 31.05009721 -10.12818313 21.12432641 -5.66162109 11.20019531 C-5.35544861 10.52212326 -5.04927612 9.84405121 -4.73382568 9.14543152 C-3.90486149 7.30945218 -3.07855962 5.47227144 -2.25244141 3.63500977 C-1 1 -1 1 0 0 Z " fill="#191850" transform="translate(64,6)"/>
<path d="M0 0 C1.12591553 0.00523682 2.25183105 0.01047363 3.41186523 0.01586914 C4.62680664 0.0190918 5.84174805 0.02231445 7.09350586 0.02563477 C8.37290039 0.03401367 9.65229492 0.04239258 10.97045898 0.05102539 C12.2537207 0.05553711 13.53698242 0.06004883 14.85913086 0.06469727 C18.04211921 0.07652994 21.22501661 0.09301471 24.40795898 0.11352539 C21.27748785 7.70070142 18.07671506 15.24841388 14.72045898 22.73852539 C14.33051758 23.6215332 13.94057617 24.50454102 13.53881836 25.41430664 C13.16176758 26.25606445 12.7847168 27.09782227 12.39624023 27.96508789 C12.06148682 28.71612793 11.7267334 29.46716797 11.38183594 30.2409668 C10.40795898 32.11352539 10.40795898 32.11352539 8.40795898 34.11352539 C5.9777832 34.34057617 5.9777832 34.34057617 2.96264648 34.30883789 C1.8862793 34.30239258 0.80991211 34.29594727 -0.29907227 34.28930664 C-1.9909668 34.26416992 -1.9909668 34.26416992 -3.71704102 34.23852539 C-4.85270508 34.22950195 -5.98836914 34.22047852 -7.15844727 34.21118164 C-9.969854 34.18755637 -12.780844 34.15461552 -15.59204102 34.11352539 C-16.82072126 31.2112052 -16.57136137 30.0532659 -15.52807617 27.01318359 C-14.71282471 25.2317395 -14.71282471 25.2317395 -13.88110352 23.41430664 C-13.59351166 22.7786528 -13.3059198 22.14299896 -13.00961304 21.48808289 C-12.08953512 19.46227709 -11.15329323 17.44439868 -10.21704102 15.42602539 C-9.59363065 14.05604389 -8.97122287 12.68560569 -8.34985352 11.31469727 C-3.25666033 0.14263418 -3.25666033 0.14263418 0 0 Z " fill="#1A1950" transform="translate(32.592041015625,79.886474609375)"/>
<path d="M0 0 C4.19215661 3.68442731 5.63584422 8.75044022 7.6875 13.8125 C8.10322266 14.79798828 8.51894531 15.78347656 8.94726562 16.79882812 C12.92015019 26.51249828 12.92015019 26.51249828 12 31 C10.35546875 32.64453125 10.35546875 32.64453125 8.1875 33.8125 C7.47980469 34.21082031 6.77210937 34.60914063 6.04296875 35.01953125 C2.23235251 36.8483356 -0.75523335 37.13533935 -4.9375 37.125 C-6.49791016 37.12886719 -6.49791016 37.12886719 -8.08984375 37.1328125 C-10.57665971 37.01932023 -12.63092407 36.71928571 -15 36 C-14.39254603 31.14036821 -12.27241033 27.2594482 -10 23 C-7.69 23 -5.38 23 -3 23 C-3.680625 22.443125 -4.36125 21.88625 -5.0625 21.3125 C-7 19 -7 19 -6.8125 16.8125 C-5.79997825 13.30761702 -4.41451066 10.01505766 -2.9375 6.6875 C-2.65583984 6.04232422 -2.37417969 5.39714844 -2.08398438 4.73242188 C-1.3937257 3.15301642 -0.69746802 1.57623507 0 0 Z " fill="#F7BF0A" transform="translate(72,68)"/>
<path d="M0 0 C4.91768673 -0.07805852 7.685682 -0.04592874 11.6015625 3.0703125 C13.82073705 5.31766705 15.94842642 7.5992224 18 10 C13.65230974 13.44816814 10.57475794 14.13862734 5.0625 14.125 C3.50208984 14.12886719 3.50208984 14.12886719 1.91015625 14.1328125 C-0.57665971 14.01932023 -2.63092407 13.71928571 -5 13 C-4.39254603 8.14036821 -2.27241033 4.2594482 0 0 Z " fill="#1C1C54" transform="translate(62,91)"/>
<path d="M0 0 C4.95 0 9.9 0 15 0 C9.71428571 12.71428571 9.71428571 12.71428571 7 19 C6.72414063 18.43023437 6.44828125 17.86046875 6.1640625 17.2734375 C5.39584377 15.77309085 4.57816433 14.29694055 3.7109375 12.8515625 C3.27007812 12.11679688 2.82921875 11.38203125 2.375 10.625 C1.70597656 9.53058594 1.70597656 9.53058594 1.0234375 8.4140625 C0 6 0 6 0 0 Z " fill="#F5C017" transform="translate(42,80)"/>
<path d="M0 0 C0.99 0 1.98 0 3 0 C3.33 17.16 3.66 34.32 4 52 C3.67 51.34 3.34 50.68 3 50 C1.35 50.66 -0.3 51.32 -2 52 C-1.67 51.01 -1.34 50.02 -1 49 C-0.01 49 0.98 49 2 49 C2 33.49 2 17.98 2 2 C1.34 3.32 0.68 4.64 0 6 C-0.99 6.33 -1.98 6.66 -3 7 C-1.125 1.125 -1.125 1.125 0 0 Z " fill="#2A2450" transform="translate(64,6)"/>
<path d="M0 0 C2.8290723 2.8290723 3.37611108 3.38144425 4 7 C3.401875 7.144375 2.80375 7.28875 2.1875 7.4375 C0.43849596 7.8872439 -1.28677023 8.42892341 -3 9 C-2.01 6.03 -1.02 3.06 0 0 Z " fill="#F5C945" transform="translate(72,68)"/>
<path d="M0 0 C1.32 1.65 2.64 3.3 4 5 C1.69 6.32 -0.62 7.64 -3 9 C-2.44271087 5.65626525 -1.64826111 2.96687001 0 0 Z " fill="#3F3F68" transform="translate(35,68)"/>
<path d="M0 0 C0.99 0 1.98 0 3 0 C3 0.66 3 1.32 3 2 C1.33333333 3.66666667 -0.33333333 5.33333333 -2 7 C-2.33 6.34 -2.66 5.68 -3 5 C-1.75 2.375 -1.75 2.375 0 0 Z " fill="#373761" transform="translate(64,6)"/>
</svg>
